<svg width="457" height="122" viewBox="0 0 457 122" fill="none" xmlns="http://www.w3.org/2000/svg">
<path d="M6.53014 27.3168L2.65055 2.67144L402.369 26.1444C402.369 26.1444 406.562 25.8619 408.345 26.4953C410.128 27.1288 410.128 27.2121 410.128 27.2121L411.791 28.0336L418.321 33.0674L424.418 42.104L427.189 48.6761L429.406 55.2482L434.948 70.0354L444.924 94.6807L451.021 108.646C451.021 108.646 454.346 115.218 454.346 119.326C454.346 123.434 451.347 121.484 448.25 120.969L441.599 119.326C441.599 119.326 432.177 116.374 429.406 115.552C426.635 114.731 425.526 111.932 425.526 111.932L412.225 91.3947L399.171 73.3352L395.718 69.4348L389.068 63.2679L386.503 61.0126L384.634 59.3695L376.754 55.2482L367.332 51.9621L307.476 43.747L241.523 37.9964L129.014 31.4243L6.53014 27.3168Z" fill="#463B3B"/>
<path d="M386.503 61.0126L384.634 59.3695M386.503 61.0126L389.068 63.2679M386.503 61.0126C389.436 63.3145 391.547 65.4298 393.502 67.2692C396.568 70.156 398.443 72.3288 399.171 73.3352M399.171 73.3352L412.225 91.3946L425.526 111.932C425.526 111.932 426.635 114.731 429.406 115.552C432.177 116.374 441.599 119.326 441.599 119.326L448.25 120.969C451.347 121.484 454.346 123.434 454.346 119.326C454.346 115.218 451.021 108.646 451.021 108.646L444.924 94.6807L434.948 70.0354L429.406 55.2482L427.189 48.6761L424.418 42.104L418.321 33.0674L411.791 28.0336L410.128 27.2121C410.128 27.2121 410.128 27.1288 408.345 26.4953C406.562 25.8619 402.369 26.1444 402.369 26.1444L2.65055 2.67144L6.53014 27.3168L129.014 31.4243L241.523 37.9964L307.476 43.747L367.332 51.9621L376.754 55.2482L384.634 59.3695M399.171 73.3352L395.718 69.4348L389.068 63.2679M384.634 59.3695L389.068 63.2679" stroke="black"/>
<line y1="-0.5" x2="15.8557" y2="-0.5" transform="matrix(0.55927 0.828985 -0.55927 0.828985 3.32532 3.38824)" stroke="#FFF9F9"/>
<line y1="-0.5" x2="11.3093" y2="-0.5" transform="matrix(0.490065 -0.871686 0.629221 0.777226 6.65076 26.3905)" stroke="#FFF9F9"/>
<line y1="-0.5" x2="385.773" y2="-0.5" transform="matrix(0.99704 0.0768837 -0.0350755 0.999385 13.3015 14.8894)" stroke="#FFF9F9"/>
<path d="M397.935 43.6423L412.9 48.5713L421.767 59.251L431.189 76.5027L440.611 95.3975L453.358 119.221" stroke="#FFF9F9"/>
</svg>
