<svg width="456" height="127" viewBox="0 0 456 127" fill="none" xmlns="http://www.w3.org/2000/svg">
<path d="M449.484 28.4363L453.355 2.78093L54.5113 27.2159C54.5113 27.2159 50.3277 26.9218 48.5484 27.5812C46.769 28.2406 46.769 28.3273 46.769 28.3273L45.11 29.1825L38.5941 34.4226L32.5109 43.8296L29.7459 50.671L27.5338 57.5125L22.0037 72.9057L12.0494 98.561L5.96622 113.099C5.96622 113.099 2.64813 119.941 2.64813 124.216C2.64813 128.492 5.64061 126.463 8.73128 125.927L15.3675 124.216C15.3675 124.216 24.7687 121.143 27.5338 120.288C30.2989 119.433 31.4049 116.52 31.4049 116.52L44.6772 95.1403L57.7027 76.3408L61.1474 72.2805L67.7836 65.8609L70.3431 63.5131L72.2077 61.8027L80.0702 57.5125L89.4715 54.0917L149.197 45.5399L215.006 39.5536L327.268 32.7122L449.484 28.4363Z" fill="#463B3B"/>
<path d="M70.3431 63.5131L72.2077 61.8027M70.3431 63.5131L67.7836 65.8609M70.3431 63.5131C67.4161 65.9094 65.3093 68.1114 63.3595 70.0261C60.2993 73.0312 58.4285 75.2931 57.7026 76.3408M57.7026 76.3408L44.6773 95.1403L31.4049 116.52C31.4049 116.52 30.2989 119.433 27.5338 120.288C24.7687 121.143 15.3675 124.216 15.3675 124.216L8.73129 125.927C5.64062 126.463 2.64814 128.492 2.64814 124.216C2.64814 119.941 5.96622 113.099 5.96622 113.099L12.0494 98.561L22.0037 72.9057L27.5338 57.5125L29.7459 50.671L32.5109 43.8296L38.5941 34.4226L45.11 29.1825L46.769 28.3273C46.769 28.3273 46.769 28.2406 48.5484 27.5812C50.3277 26.9218 54.5113 27.2159 54.5113 27.2159L453.355 2.78093L449.484 28.4363L327.268 32.7122L215.006 39.5536L149.197 45.5399L89.4715 54.0917L80.0702 57.5125L72.2077 61.8027M57.7026 76.3408L61.1474 72.2805L67.7836 65.8609M72.2077 61.8027L67.7836 65.8609" stroke="black"/>
<line y1="-0.5" x2="16.2945" y2="-0.5" transform="matrix(-0.543018 0.839721 0.543018 0.839721 452.682 3.5271)" stroke="#FFFAFA"/>
<line y1="-0.5" x2="11.6574" y2="-0.5" transform="matrix(-0.474391 -0.880314 -0.613064 0.790033 449.364 27.4721)" stroke="#FFFAFA"/>
<line y1="-0.5" x2="385.029" y2="-0.5" transform="matrix(-0.99678 0.0801892 0.0336225 0.999435 442.728 15.4996)" stroke="#FFFAFA"/>
<path d="M58.9353 45.4309L44.0039 50.562L35.1557 61.6793L25.7544 79.6381L16.3532 99.3072L3.63385 124.107" stroke="#FFFAFA"/>
</svg>
